<svg xmlns="http://www.w3.org/2000/svg" xmlns:xlink="http://www.w3.org/1999/xlink" preserveAspectRatio="xMidYMid" width="26.281" height="26.781" viewBox="0 0 26.281 26.781">
  <defs>
    <style>
      .cls-1 {
        fill: #000;
        fill-rule: evenodd;
      }
    </style>
  </defs>
  <path d="M16.064,13.375 L25.687,22.999 C26.468,23.780 26.468,25.046 25.687,25.827 L25.312,26.203 C24.531,26.984 23.264,26.984 22.483,26.203 L12.859,16.579 L3.767,25.672 C2.986,26.452 1.719,26.452 0.938,25.672 L0.563,25.296 C-0.218,24.515 -0.218,23.248 0.563,22.467 L9.655,13.375 L0.563,4.282 C-0.218,3.501 -0.218,2.235 0.563,1.454 L0.938,1.078 C1.720,0.297 2.986,0.297 3.767,1.078 L12.859,10.171 L22.483,0.547 C23.264,-0.234 24.530,-0.234 25.311,0.547 L25.687,0.923 C26.468,1.704 26.468,2.970 25.687,3.751 L16.064,13.375 Z" class="cls-1"/>
</svg>
