<svg xmlns="http://www.w3.org/2000/svg" xmlns:xlink="http://www.w3.org/1999/xlink" preserveAspectRatio="xMidYMid" width="35" height="25" viewBox="0 0 35 25">
  <defs>
    <style>
      .cls-1 {
        fill: #000;
        fill-rule: evenodd;
      }
    </style>
  </defs>
  <path d="M32.719,14.781 L2.281,14.781 C1.021,14.781 -0.000,13.760 -0.000,12.500 C-0.000,11.240 1.021,10.219 2.281,10.219 L32.719,10.219 C33.979,10.219 35.000,11.240 35.000,12.500 C35.000,13.760 33.979,14.781 32.719,14.781 ZM32.734,4.531 L2.266,4.531 C1.014,4.531 -0.000,3.517 -0.000,2.266 C-0.000,1.014 1.014,-0.000 2.266,-0.000 L32.734,-0.000 C33.986,-0.000 35.000,1.014 35.000,2.266 C35.000,3.517 33.986,4.531 32.734,4.531 ZM2.266,20.469 L32.734,20.469 C33.986,20.469 35.000,21.483 35.000,22.734 C35.000,23.986 33.986,25.000 32.734,25.000 L2.266,25.000 C1.014,25.000 -0.000,23.986 -0.000,22.734 C-0.000,21.483 1.014,20.469 2.266,20.469 Z" class="cls-1"/>
</svg>
